<mxfile host="app.diagrams.net" modified="2020-07-24T15:54:47.607Z" agent="5.0 (Windows NT 10.0; Win64; x64) AppleWebKit/537.36 (KHTML, like Gecko) Chrome/79.0.3945.117 Safari/537.36" etag="BdtYSIMQ72Yas-GVMoon" version="13.5.3" type="github">
  <diagram id="2f404044-711c-603c-8f00-f6bb4c023d3c" name="Page-1">
    <mxGraphModel dx="2591" dy="762" grid="1" gridSize="10" guides="1" tooltips="1" connect="1" arrows="1" fold="1" page="1" pageScale="1" pageWidth="1169" pageHeight="827" background="#ffffff" math="0" shadow="0">
      <root>
        <mxCell id="0" />
        <mxCell id="1" parent="0" />
        <mxCell id="QS25DertQXvmk6rhUbj2-1" style="edgeStyle=orthogonalEdgeStyle;rounded=0;orthogonalLoop=1;jettySize=auto;html=1;" parent="1" source="8XHSFWnbZJ1DE-YiNsan-62" target="8XHSFWnbZJ1DE-YiNsan-65" edge="1">
          <mxGeometry relative="1" as="geometry" />
        </mxCell>
        <mxCell id="8XHSFWnbZJ1DE-YiNsan-62" value="Data Query" style="shape=image;html=1;verticalAlign=top;verticalLabelPosition=bottom;labelBackgroundColor=#ffffff;imageAspect=0;aspect=fixed;image=https://cdn3.iconfinder.com/data/icons/linecons-free-vector-icons-pack/32/data-128.png" parent="1" vertex="1">
          <mxGeometry x="-820" y="259" width="100" height="100" as="geometry" />
        </mxCell>
        <mxCell id="8XHSFWnbZJ1DE-YiNsan-69" style="edgeStyle=orthogonalEdgeStyle;rounded=0;orthogonalLoop=1;jettySize=auto;html=1;" parent="1" source="8XHSFWnbZJ1DE-YiNsan-65" target="8XHSFWnbZJ1DE-YiNsan-67" edge="1">
          <mxGeometry relative="1" as="geometry" />
        </mxCell>
        <mxCell id="8XHSFWnbZJ1DE-YiNsan-65" value="&lt;font style=&quot;font-size: 15px&quot;&gt;Country Targeting&lt;/font&gt;" style="ellipse;whiteSpace=wrap;html=1;aspect=fixed;" parent="1" vertex="1">
          <mxGeometry x="-540" y="244" width="130" height="130" as="geometry" />
        </mxCell>
        <mxCell id="8XHSFWnbZJ1DE-YiNsan-70" style="edgeStyle=orthogonalEdgeStyle;rounded=0;orthogonalLoop=1;jettySize=auto;html=1;" parent="1" source="8XHSFWnbZJ1DE-YiNsan-67" target="8XHSFWnbZJ1DE-YiNsan-68" edge="1">
          <mxGeometry relative="1" as="geometry" />
        </mxCell>
        <mxCell id="8XHSFWnbZJ1DE-YiNsan-67" value="&lt;font style=&quot;font-size: 17px&quot;&gt;Value Targeting&lt;/font&gt;" style="ellipse;whiteSpace=wrap;html=1;aspect=fixed;" parent="1" vertex="1">
          <mxGeometry x="-300" y="238" width="142" height="142" as="geometry" />
        </mxCell>
        <mxCell id="8XHSFWnbZJ1DE-YiNsan-73" style="edgeStyle=orthogonalEdgeStyle;rounded=0;orthogonalLoop=1;jettySize=auto;html=1;" parent="1" source="8XHSFWnbZJ1DE-YiNsan-68" target="8XHSFWnbZJ1DE-YiNsan-71" edge="1">
          <mxGeometry relative="1" as="geometry" />
        </mxCell>
        <mxCell id="8XHSFWnbZJ1DE-YiNsan-68" value="&lt;font style=&quot;font-size: 16px&quot;&gt;Segmentation&lt;/font&gt;" style="ellipse;whiteSpace=wrap;html=1;aspect=fixed;" parent="1" vertex="1">
          <mxGeometry x="-60" y="241.5" width="135" height="135" as="geometry" />
        </mxCell>
        <mxCell id="4gRK0sS5Mk44YcZ_f5wx-4" style="edgeStyle=orthogonalEdgeStyle;rounded=0;orthogonalLoop=1;jettySize=auto;html=1;" parent="1" source="8XHSFWnbZJ1DE-YiNsan-71" target="4gRK0sS5Mk44YcZ_f5wx-7" edge="1">
          <mxGeometry relative="1" as="geometry">
            <mxPoint x="-880" y="630" as="targetPoint" />
            <Array as="points">
              <mxPoint x="380" y="310" />
              <mxPoint x="380" y="450" />
              <mxPoint x="-1020" y="450" />
              <mxPoint x="-1020" y="585" />
            </Array>
          </mxGeometry>
        </mxCell>
        <mxCell id="8XHSFWnbZJ1DE-YiNsan-71" value="&lt;font style=&quot;font-size: 15px&quot;&gt;Compliance Suppressions&lt;/font&gt;" style="ellipse;whiteSpace=wrap;html=1;aspect=fixed;" parent="1" vertex="1">
          <mxGeometry x="190" y="245" width="130" height="130" as="geometry" />
        </mxCell>
        <mxCell id="8XHSFWnbZJ1DE-YiNsan-63" value="" style="html=1;aspect=fixed;strokeColor=none;shadow=0;align=center;verticalAlign=top;fillColor=#3B8DF1;shape=mxgraph.gcp2.play_start" parent="1" vertex="1">
          <mxGeometry x="-1120" y="260" width="100" height="100" as="geometry" />
        </mxCell>
        <mxCell id="8XHSFWnbZJ1DE-YiNsan-90" value="" style="edgeStyle=orthogonalEdgeStyle;rounded=0;orthogonalLoop=1;jettySize=auto;html=1;" parent="1" source="8XHSFWnbZJ1DE-YiNsan-63" edge="1">
          <mxGeometry relative="1" as="geometry">
            <mxPoint x="-960" y="310" as="targetPoint" />
          </mxGeometry>
        </mxCell>
        <mxCell id="8XHSFWnbZJ1DE-YiNsan-85" value="" style="edgeStyle=elbowEdgeStyle;html=1;elbow=horizontal;endArrow=none;rounded=0;startArrow=open;strokeWidth=3;startSize=12;" parent="1" source="8XHSFWnbZJ1DE-YiNsan-62" edge="1">
          <mxGeometry relative="1" as="geometry">
            <mxPoint x="-1020" y="310" as="targetPoint" />
            <mxPoint x="-960" y="310" as="sourcePoint" />
          </mxGeometry>
        </mxCell>
        <mxCell id="4gRK0sS5Mk44YcZ_f5wx-16" style="edgeStyle=orthogonalEdgeStyle;rounded=0;orthogonalLoop=1;jettySize=auto;html=1;entryX=0;entryY=0.5;entryDx=0;entryDy=0;" parent="1" source="4gRK0sS5Mk44YcZ_f5wx-7" target="4gRK0sS5Mk44YcZ_f5wx-9" edge="1">
          <mxGeometry relative="1" as="geometry">
            <Array as="points">
              <mxPoint x="-605" y="720" />
              <mxPoint x="-940" y="720" />
              <mxPoint x="-940" y="1035" />
            </Array>
          </mxGeometry>
        </mxCell>
        <mxCell id="4gRK0sS5Mk44YcZ_f5wx-7" value="SNAP Crediting" style="rhombus;whiteSpace=wrap;html=1;" parent="1" vertex="1">
          <mxGeometry x="-710" y="500" width="210" height="170" as="geometry" />
        </mxCell>
        <mxCell id="4gRK0sS5Mk44YcZ_f5wx-10" style="edgeStyle=orthogonalEdgeStyle;rounded=0;orthogonalLoop=1;jettySize=auto;html=1;entryX=0.01;entryY=0.576;entryDx=0;entryDy=0;entryPerimeter=0;" parent="1" source="4gRK0sS5Mk44YcZ_f5wx-9" edge="1" target="8XHSFWnbZJ1DE-YiNsan-102">
          <mxGeometry relative="1" as="geometry">
            <mxPoint x="-530" y="840" as="targetPoint" />
            <Array as="points">
              <mxPoint x="-730" y="840" />
            </Array>
          </mxGeometry>
        </mxCell>
        <mxCell id="pf_8lkapyMWm3zXwerXr-1" value="Web Message" style="edgeLabel;html=1;align=center;verticalAlign=middle;resizable=0;points=[];" vertex="1" connectable="0" parent="4gRK0sS5Mk44YcZ_f5wx-10">
          <mxGeometry x="0.2084" y="1" relative="1" as="geometry">
            <mxPoint as="offset" />
          </mxGeometry>
        </mxCell>
        <mxCell id="4gRK0sS5Mk44YcZ_f5wx-11" style="edgeStyle=orthogonalEdgeStyle;rounded=0;orthogonalLoop=1;jettySize=auto;html=1;" parent="1" edge="1" target="pf_8lkapyMWm3zXwerXr-4">
          <mxGeometry relative="1" as="geometry">
            <mxPoint x="-380" y="940" as="targetPoint" />
            <Array as="points">
              <mxPoint x="-730" y="1060" />
            </Array>
            <mxPoint x="-730" y="990.3589838486225" as="sourcePoint" />
          </mxGeometry>
        </mxCell>
        <mxCell id="pf_8lkapyMWm3zXwerXr-3" value="Email" style="edgeLabel;html=1;align=center;verticalAlign=middle;resizable=0;points=[];" vertex="1" connectable="0" parent="4gRK0sS5Mk44YcZ_f5wx-11">
          <mxGeometry x="-0.1881" y="-1" relative="1" as="geometry">
            <mxPoint as="offset" />
          </mxGeometry>
        </mxCell>
        <mxCell id="4gRK0sS5Mk44YcZ_f5wx-13" style="edgeStyle=orthogonalEdgeStyle;rounded=0;orthogonalLoop=1;jettySize=auto;html=1;" parent="1" source="4gRK0sS5Mk44YcZ_f5wx-9" edge="1">
          <mxGeometry relative="1" as="geometry">
            <mxPoint x="-450" y="1440" as="targetPoint" />
            <Array as="points">
              <mxPoint x="-725" y="1440" />
              <mxPoint x="-470" y="1440" />
            </Array>
          </mxGeometry>
        </mxCell>
        <mxCell id="4gRK0sS5Mk44YcZ_f5wx-14" style="edgeStyle=orthogonalEdgeStyle;rounded=0;orthogonalLoop=1;jettySize=auto;html=1;" parent="1" source="4gRK0sS5Mk44YcZ_f5wx-9" edge="1">
          <mxGeometry relative="1" as="geometry">
            <mxPoint x="-440" y="1560" as="targetPoint" />
            <Array as="points">
              <mxPoint x="-730" y="1560" />
              <mxPoint x="-470" y="1560" />
            </Array>
          </mxGeometry>
        </mxCell>
        <mxCell id="pf_8lkapyMWm3zXwerXr-28" style="edgeStyle=orthogonalEdgeStyle;rounded=0;orthogonalLoop=1;jettySize=auto;html=1;" edge="1" parent="1" source="4gRK0sS5Mk44YcZ_f5wx-9" target="pf_8lkapyMWm3zXwerXr-26">
          <mxGeometry relative="1" as="geometry">
            <Array as="points">
              <mxPoint x="-725" y="1281" />
            </Array>
          </mxGeometry>
        </mxCell>
        <mxCell id="4gRK0sS5Mk44YcZ_f5wx-9" value="Channel Split" style="ellipse;whiteSpace=wrap;html=1;aspect=fixed;" parent="1" vertex="1">
          <mxGeometry x="-760" y="1070" width="70" height="70" as="geometry" />
        </mxCell>
        <mxCell id="4gRK0sS5Mk44YcZ_f5wx-15" value="" style="group" parent="1" vertex="1" connectable="0">
          <mxGeometry x="-280" y="770" width="1268" height="128" as="geometry" />
        </mxCell>
        <mxCell id="8XHSFWnbZJ1DE-YiNsan-102" value="JavaScript for Opt Out counts" style="shape=image;html=1;verticalAlign=top;verticalLabelPosition=bottom;labelBackgroundColor=#ffffff;imageAspect=0;aspect=fixed;image=https://cdn4.iconfinder.com/data/icons/file-names-25/512/1-128.png" parent="4gRK0sS5Mk44YcZ_f5wx-15" vertex="1">
          <mxGeometry y="15" width="97.23317683881064" height="97.23317683881064" as="geometry" />
        </mxCell>
        <mxCell id="8XHSFWnbZJ1DE-YiNsan-105" value="JavaScript for Country Counts" style="shape=image;html=1;verticalAlign=top;verticalLabelPosition=bottom;labelBackgroundColor=#ffffff;imageAspect=0;aspect=fixed;image=https://cdn4.iconfinder.com/data/icons/file-names-25/512/1-128.png" parent="4gRK0sS5Mk44YcZ_f5wx-15" vertex="1">
          <mxGeometry x="246.05946791862286" y="15" width="97.23317683881064" height="97.23317683881064" as="geometry" />
        </mxCell>
        <mxCell id="8XHSFWnbZJ1DE-YiNsan-104" style="edgeStyle=orthogonalEdgeStyle;rounded=0;orthogonalLoop=1;jettySize=auto;html=1;" parent="4gRK0sS5Mk44YcZ_f5wx-15" source="8XHSFWnbZJ1DE-YiNsan-102" target="8XHSFWnbZJ1DE-YiNsan-105" edge="1">
          <mxGeometry relative="1" as="geometry">
            <mxPoint x="236.1377151799687" y="64" as="targetPoint" />
          </mxGeometry>
        </mxCell>
        <mxCell id="8XHSFWnbZJ1DE-YiNsan-108" value="Data Approval" style="shape=image;html=1;verticalAlign=top;verticalLabelPosition=bottom;labelBackgroundColor=#ffffff;imageAspect=0;aspect=fixed;image=https://cdn1.iconfinder.com/data/icons/handy-vol-1-2/128/handyArtboard_13-128.png" parent="4gRK0sS5Mk44YcZ_f5wx-15" vertex="1">
          <mxGeometry x="454.4162754303599" width="126.99843505477308" height="126.99843505477308" as="geometry" />
        </mxCell>
        <mxCell id="8XHSFWnbZJ1DE-YiNsan-106" style="edgeStyle=orthogonalEdgeStyle;rounded=0;orthogonalLoop=1;jettySize=auto;html=1;" parent="4gRK0sS5Mk44YcZ_f5wx-15" source="8XHSFWnbZJ1DE-YiNsan-105" target="8XHSFWnbZJ1DE-YiNsan-108" edge="1">
          <mxGeometry relative="1" as="geometry">
            <mxPoint x="390.9170579029734" y="64" as="targetPoint" />
          </mxGeometry>
        </mxCell>
        <mxCell id="8XHSFWnbZJ1DE-YiNsan-111" value="Execution Approval" style="shape=image;html=1;verticalAlign=top;verticalLabelPosition=bottom;labelBackgroundColor=#ffffff;imageAspect=0;aspect=fixed;image=https://cdn1.iconfinder.com/data/icons/handy-vol-1-2/128/handyArtboard_13-128.png" parent="4gRK0sS5Mk44YcZ_f5wx-15" vertex="1">
          <mxGeometry x="682.6165884194053" width="126.99843505477308" height="126.99843505477308" as="geometry" />
        </mxCell>
        <mxCell id="8XHSFWnbZJ1DE-YiNsan-112" style="edgeStyle=orthogonalEdgeStyle;rounded=0;orthogonalLoop=1;jettySize=auto;html=1;" parent="4gRK0sS5Mk44YcZ_f5wx-15" source="8XHSFWnbZJ1DE-YiNsan-108" target="8XHSFWnbZJ1DE-YiNsan-111" edge="1">
          <mxGeometry relative="1" as="geometry">
            <Array as="points">
              <mxPoint x="683" y="63" />
              <mxPoint x="683" y="63" />
            </Array>
          </mxGeometry>
        </mxCell>
        <mxCell id="8XHSFWnbZJ1DE-YiNsan-116" value="Scheduler" style="verticalLabelPosition=bottom;html=1;verticalAlign=top;align=center;strokeColor=none;fillColor=#00BEF2;shape=mxgraph.azure.scheduler;pointerEvents=1;" parent="4gRK0sS5Mk44YcZ_f5wx-15" vertex="1">
          <mxGeometry x="910.8169014084507" y="9" width="79.37402190923318" height="110" as="geometry" />
        </mxCell>
        <mxCell id="8XHSFWnbZJ1DE-YiNsan-117" style="edgeStyle=orthogonalEdgeStyle;rounded=0;orthogonalLoop=1;jettySize=auto;html=1;" parent="4gRK0sS5Mk44YcZ_f5wx-15" source="8XHSFWnbZJ1DE-YiNsan-111" target="8XHSFWnbZJ1DE-YiNsan-116" edge="1">
          <mxGeometry relative="1" as="geometry" />
        </mxCell>
        <mxCell id="4gRK0sS5Mk44YcZ_f5wx-1" value="Web Message" style="shape=image;html=1;verticalAlign=top;verticalLabelPosition=bottom;labelBackgroundColor=#ffffff;imageAspect=0;aspect=fixed;image=https://cdn4.iconfinder.com/data/icons/twitter-28/512/168_Twitter_Mail_Sms_Chat-128.png" parent="4gRK0sS5Mk44YcZ_f5wx-15" vertex="1">
          <mxGeometry x="1141.0015649452268" width="126.99843505477308" height="126.99843505477308" as="geometry" />
        </mxCell>
        <mxCell id="4gRK0sS5Mk44YcZ_f5wx-2" style="edgeStyle=orthogonalEdgeStyle;rounded=0;orthogonalLoop=1;jettySize=auto;html=1;" parent="4gRK0sS5Mk44YcZ_f5wx-15" source="8XHSFWnbZJ1DE-YiNsan-116" target="4gRK0sS5Mk44YcZ_f5wx-1" edge="1">
          <mxGeometry relative="1" as="geometry" />
        </mxCell>
        <mxCell id="pf_8lkapyMWm3zXwerXr-7" style="edgeStyle=orthogonalEdgeStyle;rounded=0;orthogonalLoop=1;jettySize=auto;html=1;" edge="1" parent="1" source="pf_8lkapyMWm3zXwerXr-4" target="pf_8lkapyMWm3zXwerXr-35">
          <mxGeometry relative="1" as="geometry">
            <mxPoint x="-80" y="1150" as="targetPoint" />
            <Array as="points">
              <mxPoint x="-290" y="1150" />
            </Array>
          </mxGeometry>
        </mxCell>
        <mxCell id="pf_8lkapyMWm3zXwerXr-8" value="Invalid email addresses removed" style="edgeLabel;html=1;align=center;verticalAlign=middle;resizable=0;points=[];" vertex="1" connectable="0" parent="pf_8lkapyMWm3zXwerXr-7">
          <mxGeometry x="-0.1909" y="4" relative="1" as="geometry">
            <mxPoint x="41" y="-6" as="offset" />
          </mxGeometry>
        </mxCell>
        <mxCell id="pf_8lkapyMWm3zXwerXr-11" style="edgeStyle=orthogonalEdgeStyle;rounded=0;orthogonalLoop=1;jettySize=auto;html=1;" edge="1" parent="1" source="pf_8lkapyMWm3zXwerXr-4" target="pf_8lkapyMWm3zXwerXr-10">
          <mxGeometry relative="1" as="geometry" />
        </mxCell>
        <mxCell id="pf_8lkapyMWm3zXwerXr-4" value="Email Hardbounce" style="ellipse;whiteSpace=wrap;html=1;aspect=fixed;" vertex="1" parent="1">
          <mxGeometry x="-330" y="1020" width="80" height="80" as="geometry" />
        </mxCell>
        <mxCell id="pf_8lkapyMWm3zXwerXr-38" style="edgeStyle=orthogonalEdgeStyle;rounded=0;orthogonalLoop=1;jettySize=auto;html=1;" edge="1" parent="1" source="pf_8lkapyMWm3zXwerXr-10" target="pf_8lkapyMWm3zXwerXr-37">
          <mxGeometry relative="1" as="geometry" />
        </mxCell>
        <mxCell id="pf_8lkapyMWm3zXwerXr-10" value="Spam Filter" style="ellipse;whiteSpace=wrap;html=1;aspect=fixed;" vertex="1" parent="1">
          <mxGeometry x="-40" y="1020" width="80" height="80" as="geometry" />
        </mxCell>
        <mxCell id="pf_8lkapyMWm3zXwerXr-13" value="JavaScript for Country Counts" style="shape=image;html=1;verticalAlign=top;verticalLabelPosition=bottom;labelBackgroundColor=#ffffff;imageAspect=0;aspect=fixed;image=https://cdn4.iconfinder.com/data/icons/file-names-25/512/1-128.png" vertex="1" parent="1">
          <mxGeometry x="399.9994679186228" y="1011.5" width="97.23317683881064" height="97.23317683881064" as="geometry" />
        </mxCell>
        <mxCell id="pf_8lkapyMWm3zXwerXr-15" value="Data Approval" style="shape=image;html=1;verticalAlign=top;verticalLabelPosition=bottom;labelBackgroundColor=#ffffff;imageAspect=0;aspect=fixed;image=https://cdn1.iconfinder.com/data/icons/handy-vol-1-2/128/handyArtboard_13-128.png" vertex="1" parent="1">
          <mxGeometry x="608.35627543036" y="996.5" width="126.99843505477308" height="126.99843505477308" as="geometry" />
        </mxCell>
        <mxCell id="pf_8lkapyMWm3zXwerXr-16" style="edgeStyle=orthogonalEdgeStyle;rounded=0;orthogonalLoop=1;jettySize=auto;html=1;" edge="1" parent="1" source="pf_8lkapyMWm3zXwerXr-13" target="pf_8lkapyMWm3zXwerXr-15">
          <mxGeometry relative="1" as="geometry">
            <mxPoint x="824.8570579029733" y="290.5" as="targetPoint" />
          </mxGeometry>
        </mxCell>
        <mxCell id="pf_8lkapyMWm3zXwerXr-17" value="Execution Approval" style="shape=image;html=1;verticalAlign=top;verticalLabelPosition=bottom;labelBackgroundColor=#ffffff;imageAspect=0;aspect=fixed;image=https://cdn1.iconfinder.com/data/icons/handy-vol-1-2/128/handyArtboard_13-128.png" vertex="1" parent="1">
          <mxGeometry x="836.5565884194052" y="996.5" width="126.99843505477308" height="126.99843505477308" as="geometry" />
        </mxCell>
        <mxCell id="pf_8lkapyMWm3zXwerXr-18" style="edgeStyle=orthogonalEdgeStyle;rounded=0;orthogonalLoop=1;jettySize=auto;html=1;" edge="1" parent="1" source="pf_8lkapyMWm3zXwerXr-15" target="pf_8lkapyMWm3zXwerXr-17">
          <mxGeometry relative="1" as="geometry">
            <Array as="points">
              <mxPoint x="836.9399999999999" y="1059.5" />
              <mxPoint x="836.9399999999999" y="1059.5" />
            </Array>
          </mxGeometry>
        </mxCell>
        <mxCell id="pf_8lkapyMWm3zXwerXr-25" style="edgeStyle=orthogonalEdgeStyle;rounded=0;orthogonalLoop=1;jettySize=auto;html=1;entryX=-0.002;entryY=0.615;entryDx=0;entryDy=0;entryPerimeter=0;" edge="1" parent="1" source="pf_8lkapyMWm3zXwerXr-19" target="pf_8lkapyMWm3zXwerXr-24">
          <mxGeometry relative="1" as="geometry" />
        </mxCell>
        <mxCell id="pf_8lkapyMWm3zXwerXr-19" value="Scheduler" style="verticalLabelPosition=bottom;html=1;verticalAlign=top;align=center;strokeColor=none;fillColor=#00BEF2;shape=mxgraph.azure.scheduler;pointerEvents=1;" vertex="1" parent="1">
          <mxGeometry x="1064.7569014084506" y="1005.5" width="79.37402190923318" height="110" as="geometry" />
        </mxCell>
        <mxCell id="pf_8lkapyMWm3zXwerXr-20" style="edgeStyle=orthogonalEdgeStyle;rounded=0;orthogonalLoop=1;jettySize=auto;html=1;" edge="1" parent="1" source="pf_8lkapyMWm3zXwerXr-17" target="pf_8lkapyMWm3zXwerXr-19">
          <mxGeometry relative="1" as="geometry" />
        </mxCell>
        <mxCell id="pf_8lkapyMWm3zXwerXr-24" value="Email" style="outlineConnect=0;fontColor=#232F3E;gradientColor=none;fillColor=#3334B9;strokeColor=none;dashed=0;verticalLabelPosition=bottom;verticalAlign=top;align=center;html=1;fontSize=12;fontStyle=0;aspect=fixed;pointerEvents=1;shape=mxgraph.aws4.email;" vertex="1" parent="1">
          <mxGeometry x="1310" y="1001.5" width="111.34" height="98.5" as="geometry" />
        </mxCell>
        <mxCell id="pf_8lkapyMWm3zXwerXr-29" style="edgeStyle=orthogonalEdgeStyle;rounded=0;orthogonalLoop=1;jettySize=auto;html=1;entryX=0;entryY=0.5;entryDx=0;entryDy=0;" edge="1" parent="1" source="pf_8lkapyMWm3zXwerXr-26" target="pf_8lkapyMWm3zXwerXr-35">
          <mxGeometry relative="1" as="geometry">
            <mxPoint x="-90" y="1171" as="targetPoint" />
            <Array as="points">
              <mxPoint x="-300" y="1170" />
              <mxPoint x="-90" y="1170" />
              <mxPoint x="-90" y="1169" />
            </Array>
          </mxGeometry>
        </mxCell>
        <mxCell id="pf_8lkapyMWm3zXwerXr-31" value="Invalid Phone numbers removed" style="edgeLabel;html=1;align=center;verticalAlign=middle;resizable=0;points=[];" vertex="1" connectable="0" parent="pf_8lkapyMWm3zXwerXr-29">
          <mxGeometry x="0.1673" y="-4" relative="1" as="geometry">
            <mxPoint y="6" as="offset" />
          </mxGeometry>
        </mxCell>
        <mxCell id="pf_8lkapyMWm3zXwerXr-36" style="edgeStyle=orthogonalEdgeStyle;rounded=0;orthogonalLoop=1;jettySize=auto;html=1;" edge="1" parent="1" source="pf_8lkapyMWm3zXwerXr-26">
          <mxGeometry relative="1" as="geometry">
            <mxPoint x="70" y="1281" as="targetPoint" />
          </mxGeometry>
        </mxCell>
        <mxCell id="pf_8lkapyMWm3zXwerXr-26" value="SMS Hardbounce" style="ellipse;whiteSpace=wrap;html=1;aspect=fixed;" vertex="1" parent="1">
          <mxGeometry x="-330" y="1241" width="80" height="80" as="geometry" />
        </mxCell>
        <mxCell id="pf_8lkapyMWm3zXwerXr-35" value="" style="shape=image;html=1;verticalAlign=top;verticalLabelPosition=bottom;labelBackgroundColor=#ffffff;imageAspect=0;aspect=fixed;image=https://cdn2.iconfinder.com/data/icons/circle-icons-1/64/stop-128.png" vertex="1" parent="1">
          <mxGeometry x="-60" y="1130" width="78" height="78" as="geometry" />
        </mxCell>
        <mxCell id="pf_8lkapyMWm3zXwerXr-39" style="edgeStyle=orthogonalEdgeStyle;rounded=0;orthogonalLoop=1;jettySize=auto;html=1;" edge="1" parent="1" source="pf_8lkapyMWm3zXwerXr-37" target="pf_8lkapyMWm3zXwerXr-13">
          <mxGeometry relative="1" as="geometry" />
        </mxCell>
        <mxCell id="pf_8lkapyMWm3zXwerXr-37" value="JavaScript for Opt Out counts" style="shape=image;html=1;verticalAlign=top;verticalLabelPosition=bottom;labelBackgroundColor=#ffffff;imageAspect=0;aspect=fixed;image=https://cdn4.iconfinder.com/data/icons/file-names-25/512/1-128.png" vertex="1" parent="1">
          <mxGeometry x="200" y="1011.88" width="97.23317683881064" height="97.23317683881064" as="geometry" />
        </mxCell>
      </root>
    </mxGraphModel>
  </diagram>
</mxfile>
